HIERARCHY
ROOT Hips
{
	OFFSET 0.000000 0.000000 0.000000 
	CHANNELS 6 Xposition Yposition Zposition Zrotation Yrotation Xrotation
	JOINT LeftUpLeg
	{
		OFFSET 1.363060 -1.794630 0.839290 
		CHANNELS 3 Zrotation Yrotation Xrotation
		JOINT LeftLeg
		{
			OFFSET 2.448110 -6.726130 0.000000 
			CHANNELS 3 Zrotation Yrotation Xrotation
			JOINT LeftFoot
			{
				OFFSET 2.562200 -7.039590 0.000000 
				CHANNELS 3 Zrotation Yrotation Xrotation
				JOINT LeftToeBase
				{
					OFFSET 0.157640 -0.433110 2.322550 
					CHANNELS 3 Zrotation Yrotation Xrotation
					End Site
					{
						OFFSET 0.000000 0.000000 0.000000 
					}
				}
			}
		}
	}
	JOINT RightUpLeg
	{
		OFFSET -1.305520 -1.794630 0.839290 
		CHANNELS 3 Zrotation Yrotation Xrotation
		JOINT RightLeg
		{
			OFFSET -2.542530 -6.985550 0.000000 
			CHANNELS 3 Zrotation Yrotation Xrotation
			JOINT RightFoot
			{
				OFFSET -2.568260 -7.056230 0.000000 
				CHANNELS 3 Zrotation Yrotation Xrotation
				JOINT RightToeBase
				{
					OFFSET -0.164730 -0.452590 2.363150 
					CHANNELS 3 Zrotation Yrotation Xrotation
					End Site
					{
						OFFSET 0.000000 0.000000 0.000000 
					}
				}
			}
		}
	}
	JOINT Spine
	{
		OFFSET 0.028270 2.035590 -0.193380 
		CHANNELS 3 Zrotation Yrotation Xrotation
		JOINT Spine1
		{
			OFFSET 0.056720 2.048850 -0.042750 
			CHANNELS 3 Zrotation Yrotation Xrotation
			JOINT Neck1
			{
				OFFSET -0.054170 1.746240 0.172020 
				CHANNELS 3 Zrotation Yrotation Xrotation
				JOINT Head
				{
					OFFSET 0.104070 1.761360 -0.123970 
					CHANNELS 3 Zrotation Yrotation Xrotation
					End Site
					{
						OFFSET 0.000000 0.000000 0.000000 
					}
				}
			}
			JOINT LeftArm
			{
				OFFSET 3.362410 1.200890 -0.311210 
				CHANNELS 3 Zrotation Yrotation Xrotation
				JOINT LeftForeArm
				{
					OFFSET 4.983000 -0.000000 -0.000000 
					CHANNELS 3 Zrotation Yrotation Xrotation
					JOINT LeftHand
					{
						OFFSET 3.483560 -0.000000 -0.000000 
						CHANNELS 3 Zrotation Yrotation Xrotation
						JOINT LeftHandIndex1
						{
							OFFSET 0.715260 -0.000000 -0.000000 
							CHANNELS 3 Zrotation Yrotation Xrotation
							End Site
							{
								OFFSET 0.000000 0.000000 0.000000 
							}
						}
					}
				}
			}
			JOINT RightArm
			{
				OFFSET -3.136600 1.374050 -0.404650 
				CHANNELS 3 Zrotation Yrotation Xrotation
				JOINT RightForeArm
				{
					OFFSET -5.241900 -0.000000 -0.000000 
					CHANNELS 3 Zrotation Yrotation Xrotation
					JOINT RightHand
					{
						OFFSET -3.444170 -0.000000 -0.000000 
						CHANNELS 3 Zrotation Yrotation Xrotation
						JOINT RightHandIndex1
						{
							OFFSET -0.622530 -0.000000 -0.000000 
							CHANNELS 3 Zrotation Yrotation Xrotation
							End Site
							{
								OFFSET 0.000000 0.000000 0.000000 
							}
						}
					}
				}
			}
		}
	}
}
MOTION
Frames: 18
Frame Time: 0.041667
10.262912 17.654102 1.734440 4.232948 86.667525 -2.078391 -29.657017 -17.384005 7.481168 -0.849555 7.930058 23.149776 -3.680242 19.083140 -19.879519 0.005700 0.486300 1.336300 36.092627 14.429787 9.312113 -0.760499 -8.457074 23.678277 3.050311 -21.684768 -26.227109 -1.705100 8.222800 -23.393000 1.900145 2.210548 2.251046 -7.457121 0.747008 3.650557 7.844953 2.814689 14.862375 -1.791100 2.538200 5.323000 -96.452567 -1.971048 18.892778 12.791434 -14.527464 -2.187368 -1.886127 -2.786928 9.251713 -7.125000 0.000000 0.000000 105.585050 -6.623454 14.632684 -13.246877 21.399945 -4.334764 -0.109599 1.200643 -1.478069 7.125000 0.000000 0.000000 
10.263825 17.654673 1.732501 3.718333 86.650717 -2.555312 -29.626528 -17.419728 7.434587 -0.846233 7.943373 23.174322 -3.686496 19.097478 -19.863679 0.005400 0.473400 1.300800 36.086693 14.377956 9.287012 -0.754639 -8.444523 23.640505 3.043998 -21.665843 -26.236264 -1.707700 8.228800 -23.411100 1.900086 2.204418 2.239578 -7.499179 0.745183 3.642414 7.867502 2.783516 14.938187 -1.765300 2.530800 5.356800 -96.487692 -2.015706 18.879962 12.807720 -14.550098 -2.200560 -1.888238 -2.749645 9.161770 -7.125000 0.000000 0.000000 105.604178 -6.651410 15.060339 -13.267851 21.403155 -4.321204 -0.050826 1.273044 -2.260632 7.125000 0.000000 0.000000 
10.263939 17.655357 1.731360 2.807212 86.595578 -3.462504 -29.572210 -17.428349 7.407021 -0.839526 7.959242 23.214345 -3.697343 19.128452 -19.855521 0.002900 0.348600 0.957700 36.133417 14.359843 9.322107 -0.747723 -8.423840 23.586466 3.049442 -21.650081 -26.158650 -1.691900 8.192400 -23.299900 1.904908 2.200192 2.225270 -7.527271 0.742730 3.587955 7.893881 2.785284 14.982670 -1.737700 2.536200 5.371500 -96.510825 -2.049735 18.872425 12.827809 -14.574799 -2.208111 -1.872833 -2.775037 9.106074 -7.125000 0.000000 0.000000 105.631343 -6.747318 15.460013 -13.319495 21.472820 -4.335931 -0.003506 1.340843 -3.042445 7.125000 0.000000 0.000000 
10.264053 17.655357 1.732045 1.649837 86.553266 -4.629470 -29.478941 -17.386871 7.378409 -0.833205 7.968109 23.238926 -3.720896 19.180100 -19.790958 0.000800 0.185500 0.509700 36.246062 14.409830 9.383920 -0.740447 -8.409805 23.546833 3.089841 -21.786240 -26.137578 -1.689100 8.186000 -23.280600 1.913364 2.196511 2.225184 -7.535162 0.741410 3.575897 7.924664 2.811171 15.000077 -1.710100 2.550100 5.385700 -96.533511 -2.089710 18.940357 12.861409 -14.622117 -2.220603 -1.857786 -2.827635 9.103991 -7.125000 0.000000 0.000000 105.672377 -6.840068 15.791465 -13.387853 21.572512 -4.362685 0.043727 1.399641 -3.844380 7.125000 0.000000 0.000000 
10.265536 17.655813 1.732159 1.546756 86.515649 -4.737457 -29.466300 -17.345429 7.348088 -0.825886 7.984421 23.279573 -3.747525 19.262049 -19.769759 0.000500 0.145800 0.400600 36.264166 14.422920 9.419538 -0.731863 -8.388875 23.490806 3.093525 -21.809454 -26.160059 -1.702100 8.215900 -23.371800 1.915382 2.193530 2.238763 -7.524887 0.740468 3.631288 7.944040 2.837417 15.006131 -1.692400 2.562700 5.405600 -96.559399 -2.147501 19.036128 12.903980 -14.693147 -2.247626 -1.833982 -2.847580 9.082786 -7.125000 0.000000 0.000000 105.700019 -6.837267 16.177822 -13.436183 21.615353 -4.364525 0.100880 1.460264 -4.731430 7.125000 0.000000 0.000000 
10.267019 17.656612 1.731702 1.335574 86.460641 -4.969187 -29.473802 -17.364761 7.361131 -0.819847 8.000814 23.330496 -3.730139 19.245069 -19.885566 0.001700 0.269400 0.740300 36.275283 14.384433 9.470448 -0.724454 -8.364608 23.433053 3.068493 -21.714987 -26.152033 -1.698000 8.206600 -23.343200 1.916264 2.197506 2.243995 -7.524680 0.743560 3.643968 7.946681 2.838857 15.021929 -1.687000 2.564800 5.426900 -96.569977 -2.180626 19.173393 12.935578 -14.751328 -2.276136 -1.798000 -2.851100 8.902304 -7.125000 0.000000 0.000000 105.720273 -6.841467 16.611980 -13.468271 21.625481 -4.350388 0.165048 1.523341 -5.717146 7.125000 0.000000 0.000000 
10.267361 17.656384 1.732387 -0.630253 86.352357 -6.931734 -29.334304 -17.386726 7.344633 -0.814590 8.012306 23.369535 -3.711829 19.204256 -19.967152 0.002200 0.302700 0.831700 36.443728 14.416128 9.521677 -0.715806 -8.350861 23.390865 3.070719 -21.714890 -26.132526 -1.662400 8.124300 -23.092200 1.934621 2.212656 2.242183 -7.523287 0.754192 3.629510 7.932866 2.843853 15.056852 -1.687400 2.570000 5.457400 -96.612570 -2.187336 19.255865 12.960813 -14.794161 -2.296131 -1.783120 -2.850842 8.695318 -7.125000 0.000000 0.000000 105.724173 -6.885611 17.093493 -13.515286 21.660027 -4.342333 0.227042 1.604453 -6.826313 7.125000 0.000000 0.000000 
10.266791 17.655471 1.732387 -1.583125 86.269809 -7.854733 -29.240182 -17.346103 7.278273 -0.809598 8.024735 23.396264 -3.733719 19.261589 -19.936085 0.000900 0.194700 0.534900 36.524114 14.460294 9.511751 -0.709615 -8.343601 23.357970 3.086366 -21.746872 -26.078031 -1.667000 8.135000 -23.124900 1.951072 2.210944 2.246817 -7.503022 0.753557 3.655944 7.908517 2.871480 15.077314 -1.689200 2.582600 5.482200 -96.685007 -2.210551 19.243142 12.989071 -14.837672 -2.312356 -1.788937 -2.840740 8.612494 -7.125000 0.000000 0.000000 105.703396 -6.894068 17.570699 -13.568552 21.700634 -4.338902 0.269877 1.693281 -7.752642 7.125000 0.000000 0.000000 
10.265650 17.654901 1.731931 -0.797570 86.332289 -7.061500 -29.291985 -17.337397 7.247927 -0.806293 8.035248 23.417418 -3.720722 19.216413 -19.917386 0.001200 0.226300 0.621800 36.454066 14.446292 9.496592 -0.707342 -8.334755 23.331496 3.115618 -21.831586 -26.034283 -1.730600 8.280800 -23.570100 1.946484 2.170880 2.249603 -7.504379 0.731167 3.670283 7.874266 2.877989 15.063170 -1.702600 2.581400 5.480800 -96.708624 -2.250925 19.303320 13.003386 -14.851892 -2.315941 -1.798726 -2.852866 8.572539 -7.125000 0.000000 0.000000 105.706373 -6.907249 17.965382 -13.611976 21.733021 -4.335798 0.300271 1.770089 -8.485622 7.125000 0.000000 0.000000 
10.265194 17.655928 1.732387 -0.402002 86.378298 -6.659643 -29.324177 -17.382815 7.257548 -0.807361 8.034224 23.413420 -3.695876 19.136271 -19.919159 0.002500 0.321900 0.884500 36.415443 14.423726 9.463408 -0.707916 -8.336155 23.327324 3.167480 -21.977978 -25.945776 -1.799800 8.436100 -24.046700 1.942398 2.138155 2.246648 -7.517908 0.712488 3.662889 7.853483 2.863711 15.056855 -1.712200 2.572300 5.480700 -96.712478 -2.314188 19.344864 12.989123 -14.807163 -2.298110 -1.825581 -2.855281 8.532738 -7.125000 0.000000 0.000000 105.728915 -6.941791 18.373469 -13.660389 21.774933 -4.334548 0.336419 1.847436 -9.365997 7.125000 0.000000 0.000000 
10.266334 17.657753 1.732615 -1.012557 86.306009 -7.253771 -29.263439 -17.370669 7.263049 -0.813490 8.019217 23.375041 -3.700539 19.146662 -19.918585 0.002600 0.327300 0.899200 36.463910 14.427232 9.405956 -0.711738 -8.353089 23.353488 3.238064 -22.157291 -25.777753 -1.877900 8.607000 -24.573600 1.949958 2.139437 2.249557 -7.528481 0.712824 3.692105 7.846627 2.856005 15.092966 -1.705000 2.570200 5.515200 -96.727699 -2.390898 19.331564 12.970630 -14.756299 -2.281421 -1.836741 -2.847504 8.528128 -7.125000 0.000000 0.000000 105.739462 -6.982746 18.774189 -13.726808 21.855658 -4.349239 0.375816 1.911603 -10.235783 7.125000 0.000000 0.000000 
10.267247 17.658779 1.732159 -1.561079 86.257600 -7.783623 -29.208994 -17.352781 7.267773 -0.821659 8.001743 23.330374 -3.695134 19.137333 -19.957904 0.002800 0.340600 0.935700 36.504306 14.415649 9.366051 -0.715735 -8.368573 23.384114 3.261912 -22.209237 -25.700629 -1.907300 8.670300 -24.769400 1.956781 2.133352 2.262875 -7.545964 0.711563 3.761655 7.821406 2.879787 15.096787 -1.717800 2.581000 5.525100 -96.728739 -2.459368 19.367760 12.971791 -14.750259 -2.280841 -1.818824 -2.865279 8.591849 -7.125000 0.000000 0.000000 105.746751 -7.025205 19.170416 -13.791890 21.937606 -4.363128 0.431211 1.954261 -11.069967 7.125000 0.000000 0.000000 
10.268502 17.659236 1.731702 -0.101564 86.310070 -6.312144 -29.326780 -17.363020 7.288292 -0.827235 7.994414 23.305175 -3.691448 19.137478 -19.975081 0.002400 0.313300 0.860900 36.362710 14.385282 9.336059 -0.720338 -8.371151 23.401396 3.201189 -22.019697 -25.765473 -1.848500 8.543200 -24.376500 1.946590 2.101850 2.276512 -7.538840 0.692927 3.815306 7.786380 2.897204 15.039688 -1.754700 2.584500 5.480500 -96.715414 -2.501734 19.455103 12.975584 -14.756564 -2.284544 -1.813310 -2.872162 8.603623 -7.125000 0.000000 0.000000 105.773324 -7.031781 19.554543 -13.818123 21.935343 -4.339080 0.498454 1.998302 -11.959075 7.125000 0.000000 0.000000 
10.269072 17.658665 1.731360 1.518379 86.348289 -4.680463 -29.445574 -17.347197 7.285834 -0.828049 7.996747 23.304510 -3.698052 19.164255 -19.966905 0.001600 0.257700 0.708000 36.227076 14.449509 9.332787 -0.720526 -8.363645 23.394367 3.118507 -21.784558 -25.906214 -1.758900 8.344700 -23.766100 1.932704 2.074471 2.273984 -7.531971 0.674528 3.804718 7.747055 2.882543 15.031038 -1.785600 2.577100 5.476000 -96.704756 -2.503058 19.548784 12.976364 -14.756255 -2.283842 -1.814758 -2.889980 8.533401 -7.125000 0.000000 0.000000 105.797201 -7.015777 19.920100 -13.819441 21.879360 -4.290240 0.560269 2.056045 -12.877169 7.125000 0.000000 0.000000 
10.267247 17.657296 1.731246 0.950805 86.288523 -5.231629 -29.391613 -17.338473 7.251307 -0.826159 8.003776 23.320794 -3.703800 19.189533 -19.992925 0.001900 0.278000 0.763900 36.283317 14.556762 9.356864 -0.712910 -8.350010 23.357159 3.072501 -21.663013 -26.003642 -1.701700 8.215100 -23.369200 1.937160 2.076229 2.262070 -7.542066 0.675415 3.746326 7.727745 2.885723 15.051907 -1.791700 2.580400 5.504500 -96.719362 -2.496659 19.604158 12.976327 -14.745412 -2.277314 -1.820353 -2.919646 8.478758 -7.125000 0.000000 0.000000 105.796600 -7.030359 20.316231 -13.841873 21.856006 -4.247851 0.629745 2.122537 -13.800438 7.125000 0.000000 0.000000 
10.265764 17.657639 1.731588 -0.417305 86.177105 -6.571352 -29.272148 -17.340486 7.183636 -0.818533 8.025816 23.377354 -3.701102 19.197024 -20.057612 0.002100 0.295600 0.812100 36.386496 14.631435 9.365058 -0.698237 -8.323524 23.271581 3.067464 -21.639927 -25.991879 -1.684900 8.176400 -23.251100 1.957511 2.087992 2.257790 -7.521238 0.682978 3.699863 7.730725 2.922106 15.003405 -1.782400 2.590200 5.476200 -96.775531 -2.462091 19.645787 12.986244 -14.757286 -2.279810 -1.829621 -2.937571 8.402179 -7.125000 0.000000 0.000000 105.760663 -7.067572 20.708176 -13.870855 21.849414 -4.211392 0.709452 2.167140 -14.726895 7.125000 0.000000 0.000000 
10.264167 17.660034 1.732273 -1.752913 86.061074 -7.858737 -29.131244 -17.316959 7.066026 -0.805645 8.061118 23.464396 -3.695883 19.190323 -20.104946 0.001200 0.226300 0.621900 36.457658 14.659796 9.328121 -0.679674 -8.290002 23.155345 3.094634 -21.700831 -25.909808 -1.726100 8.270700 -23.539400 1.982555 2.103967 2.266431 -7.490884 0.693504 3.701171 7.732473 2.981663 14.911120 -1.773000 2.604900 5.424200 -96.843543 -2.461383 19.686606 12.998776 -14.770451 -2.283333 -1.832572 -2.959081 8.363923 -7.125000 0.000000 0.000000 105.746617 -7.100475 21.352807 -13.945813 21.894490 -4.184424 0.817312 2.233595 -16.516572 7.125000 0.000000 0.000000 
10.259490 17.662316 1.733299 -3.666437 85.894089 -9.709414 -28.913385 -17.276610 6.911659 -0.794241 8.091288 23.530579 -3.723664 19.257634 -20.063884 0.000200 0.087700 0.241000 36.575815 14.661513 9.249785 -0.664154 -8.269240 23.058274 3.180564 -21.908112 -25.678864 -1.900700 8.656100 -24.725500 1.996960 2.168491 2.272816 -7.519464 0.734240 3.675922 7.734866 3.016628 14.804199 -1.772300 2.608300 5.366800 -96.839673 -2.498849 19.799292 12.988828 -14.744423 -2.280354 -1.832495 -2.947591 8.372952 -7.125000 0.000000 0.000000 105.750862 -7.056938 21.209422 -13.968130 21.931993 -4.205566 0.799490 2.226847 -16.583451 7.125000 0.000000 0.000000 
